<svg xmlns="http://www.w3.org/2000/svg" width="16" height="16" viewBox="0 0 16 16"><path fill="#ffe345" d="m3.1035 3a7 7 0 0 0 -1.418 2h12.631a7 7 0 0 0 -1.4277-2h-9.7852z"/><path fill="#80ff45" d="m1.6855 5a7 7 0 0 0 -.60547 2h13.842a7 7 0 0 0 -.60547-2h-12.631z"/><path fill="#45ffa2" d="m1.0801 7a7 7 0 0 0 -.080078 1 7 7 0 0 0 .078125 1h13.842a7 7 0 0 0 .080078-1 7 7 0 0 0 -.078125-1z"/><path fill="#45d7ff" d="m1.0781 9a7 7 0 0 0 .60547 2h12.631a7 7 0 0 0 .60547-2h-13.842z"/><path fill="#ff4596" d="m3.1113 13a7 7 0 0 0 4.8887 2 7 7 0 0 0 4.8965-2z"/><path fill="#8045ff" d="m1.6836 11a7 7 0 0 0 1.4277 2h9.7852a7 7 0 0 0 1.418-2h-12.631z"/><path fill="#ff4545" d="m8 1a7 7 0 0 0 -4.8965 2h9.7852a7 7 0 0 0 -4.8887-2z"/></svg>