<svg xmlns="http://www.w3.org/2000/svg" width="16" height="16" viewBox="0 0 16 16"><ellipse cx="6.664" cy="9.245" fill="#fc7f7f" fill-opacity=".996" rx="1.031" ry=".998"/><ellipse cx="-6.673" cy="-9.387" fill="none" stroke="#fc7f7f" stroke-opacity=".996" stroke-width="1.03" rx="2.409" ry="5.097" transform="matrix(-.99999945 .00104887 .00104887 -.99999945 0 0)"/><ellipse cx="9.387" cy="-6.673" fill="none" stroke="#fc7f7f" stroke-opacity=".996" stroke-width="1.03" rx="2.409" ry="5.097" transform="matrix(-.00104887 .99999945 -.99999945 .00104887 0 0)"/><g fill="#fc7f7f" fill-opacity=".996"><path d="m11.8 15 2.4-2.4.8.8v-2.4h-2.4l.8.8-2.4 2.4z"/><path d="m11 6 3-3 1 1v-3h-3l1 1-3 3z"/><path d="m1.8 5 2.4-2.4.8.8v-2.4h-2.4l.8.8-2.4 2.4z"/></g></svg>