<svg xmlns="http://www.w3.org/2000/svg" width="16" height="16" viewBox="0 0 16 16"><path fill="#ff4545" d="m8 1a4.5 5 0 0 0 -3.5938 2h7.1816a4.5 5 0 0 0 -3.5879-2z"/><path fill="#ffe345" d="m4.4062 3a4.5 5 0 0 0 -.81445 2h8.8105a4.5 5 0 0 0 -.81445-2z"/><path fill="#80ff45" d="m3.5918 5a4.5 5 0 0 0 -.0058594.03125 3 3 0 0 0 -2.4121 1.9688h13.65a3 3 0 0 0 -2.4141-1.9668 4.5 5 0 0 0 -.007812-.033203h-8.8105z"/><path fill="#45ffa2" d="m1.1738 7a3 3 0 0 0 -.17383 1 3 3 0 0 0 .17578 1h13.65a3 3 0 0 0 .17383-1 3 3 0 0 0 -.17578-1z"/><path fill="#45d7ff" d="m1.1758 9a3 3 0 0 0 2.8242 2h8a3 3 0 0 0 2.8262-2h-13.65z"/><path fill="#ff4596" d="m3 13a1 1 0 0 0 1 1 1 1 0 0 0 1-1zm5 0a1 1 0 0 0 -1 1 1 1 0 0 0 1 1 1 1 0 0 0 1-1 1 1 0 0 0 -1-1zm3 0a1 1 0 0 0 1 1 1 1 0 0 0 1-1z"/><path fill="#8045ff" d="m4 12a1 1 0 0 0 -1 1h2a1 1 0 0 0 -1-1zm8 0a1 1 0 0 0 -1 1h2a1 1 0 0 0 -1-1z"/></svg>