<svg xmlns="http://www.w3.org/2000/svg" width="16" height="16" viewBox="0 0 16 16"><path fill="#ff4545" d="m2 1c-.55226.0001-.99994.4477-1 1v1h2 6 3l-2-2z"/><path fill="#ffe345" d="m1 3v2h2v-2zm8 0v2h5l-2-2z"/><path fill="#80ff45" d="m1 5v2h2v-2zm8 0v1c0 .554.44599 1 1 1h3 2v-1l-1-1z"/><path fill="#45ffa2" d="m1 7v2h2v-2zm12 0v2h2v-2z"/><path fill="#45d7ff" d="m1 9v2h2v-2zm12 0v2h2v-2z"/><path fill="#ff4596" d="m1 13v1c.0000552.5523.44774.9999 1 1h12c.55226-.0001.99994-.4477 1-1v-1h-2-10z"/><path fill="#8045ff" d="m1 11v2h2v-2zm12 0v2h2v-2z"/></svg>