<svg xmlns="http://www.w3.org/2000/svg" width="16" height="16" viewBox="0 0 16 16"><path fill="#5fb2ff" d="m12 9c-.55401 0-1 .44599-1 1v1h2v2h1c.55401 0 1-.44599 1-1v-2c0-.55401-.44599-1-1-1zm1 4h-2v-2h-1c-.55401 0-1 .44599-1 1v2c0 .55401.44599 1 1 1h2c.55401 0 1-.44599 1-1z"/><path fill="#fc7f7f" stroke-width="1.067" d="m8 .94531-7 3.5v7.2227l7 3.5.29492-.14844c-.18282-.30101-.29492-.64737-.29492-1.0195v-2c0-.72651.40824-1.3664 1-1.7168v-1.6699l4-2v1.3867h1c.36419 0 .70336.10754 1 .2832v-3.8379zm0 2.1152 3.9395 1.9707-3.9395 1.9688-3.9395-1.9688zm-5 3.5527 4 2v3.9414l-4-2.002z"/></svg>